<?xml version="1.0" encoding="UTF-8"?>
<svg id="Layer_2" xmlns="http://www.w3.org/2000/svg" viewBox="0 0 434.72 392.32">
  <defs>
    <style>
      .cls-1, .cls-2, .cls-3, .cls-4, .cls-5 {
        fill: #fff;
      }

      .cls-1, .cls-3 {
        stroke: #fff;
        stroke-miterlimit: 10;
      }

      .cls-3 {
        stroke-width: .75px;
      }

      .cls-4 {
        font-family: LucidaBright, 'Lucida Bright';
        font-size: 12px;
      }

      .cls-5 {
        font-family: LucidaBright-Demi, 'Lucida Bright';
        font-size: 48px;
        font-weight: 300;
      }
    </style>
  </defs>
  <g id="Layer_1-2" data-name="Layer_1">
    <g id="Layer_2-2" data-name="Layer_2">
      <g>
        <path class="cls-2" d="M266.66,178.04c-5.64,2.35-13.55,6.57-20.22,14.24-5,5.74-11.18,15.58-13.94,51.05-1.01,12.98-1.64,30.34-.28,50.95v67.52c0,5.41.68,10.66,1.93,15.69h-9.71V70.49c1.71,18.81,3.42,37.61,5.14,56.42.44,4.51,2.26,16.83,12.2,28.15,8.53,9.72,18.59,13.62,23.1,15.06h0c12.96,1.02,25.92,2.04,38.87,3.07"/>
        <path class="cls-2" d="M182.2,178.04c5.64,2.35,13.55,6.57,20.22,14.24,5,5.74,11.18,15.58,13.94,51.05,1.01,12.98,1.64,30.34.28,50.95v67.52c0,5.41-.68,10.66-1.93,15.69h9.71V70.49c-1.71,18.81-3.42,37.61-5.14,56.42-.44,4.51-2.26,16.83-12.2,28.15-8.53,9.72-18.59,13.62-23.1,15.06h0c-12.96,1.02-25.92,2.04-38.87,3.07"/>
      </g>
      <g>
        <polygon class="cls-1" points="66.44 240.54 78.41 252.3 58.83 290.74 118.32 290.74 140.67 312.01 14.35 312.01 66.44 240.54"/>
        <polygon class="cls-1" points="381.65 240.54 369.68 252.3 390.32 290.74 329.76 290.74 307.41 312.01 433.74 312.01 381.65 240.54"/>
        <path class="cls-2" d="M141.24,289.8l23.72,22.21h46.09v-14.75c0-3.58-2.94-6.49-6.59-6.54l-63.21-.91"/>
        <path class="cls-2" d="M307.41,289.8l-23.72,22.21h-46.09v-14.75c0-3.58,2.94-6.49,6.59-6.54l63.21-.91"/>
        <polygon class="cls-1" points="77.51 223.18 90.29 236.86 224.32 36.59 355.1 238.53 368.12 226.8 224.43 29.91 77.51 223.18"/>
      </g>
      <path class="cls-3" d="M224.43.52L24.7,192.46l199.73,196.06,199.51-196.06L224.43.52h0ZM224.43,374.5L37.99,192.45,224.2,3.59l185.8,188.86-185.56,182.05h-.01Z"/>
    </g>
    <text class="cls-5" transform="translate(0 356.5)"><tspan x="0" y="0">DIASO</tspan></text>
    <text class="cls-4" transform="translate(1.01 373.86)"><tspan x="0" y="0">anime merchandise selling </tspan><tspan x="0" y="14.4">website!</tspan></text>
  </g>
</svg>